<?xml version="1.0" encoding="UTF-8"?>
<svg version="1.1" xmlns="http://www.w3.org/2000/svg" width="100" height="100">
<path d="M0 0 C33 0 66 0 100 0 C100 33 100 66 100 100 C67 100 34 100 0 100 C0 67 0 34 0 0 Z " fill="#FDFDFD" transform="translate(0,0)"/>
<path d="M0 0 C0.33 -0.33 0.66 -0.66 1 -1 C4.6691577 -1.14310287 8.32715441 -1.04221662 12 -1 C11.34 5.27 10.68 11.54 10 18 C7.69 18 5.38 18 3 18 C3 17.01 3 16.02 3 15 C2.34 15 1.68 15 1 15 C0.505 16.485 0.505 16.485 0 18 C-0.61488281 17.98839844 -1.22976562 17.97679688 -1.86328125 17.96484375 C-3.07564453 17.95130859 -3.07564453 17.95130859 -4.3125 17.9375 C-5.11300781 17.92589844 -5.91351563 17.91429688 -6.73828125 17.90234375 C-9.16861334 17.90342145 -9.16861334 17.90342145 -12 19 C-13.70283422 19.08770177 -15.40892748 19.11765393 -17.11401367 19.11352539 C-18.15486618 19.11344986 -19.19571869 19.11337433 -20.26811218 19.11329651 C-21.39006485 19.10813522 -22.51201752 19.10297394 -23.66796875 19.09765625 C-25.39289299 19.09553383 -25.39289299 19.09553383 -27.15266418 19.09336853 C-30.83096908 19.08776429 -34.50921345 19.07521104 -38.1875 19.0625 C-40.67903558 19.05748555 -43.17057211 19.05292255 -45.66210938 19.04882812 C-51.77476029 19.03779347 -57.88737582 19.02105118 -64 19 C-64.06634929 14.41314208 -63.95552824 10.94533579 -62.1875 6.6875 C-61.85105469 5.84574219 -61.51460937 5.00398438 -61.16796875 4.13671875 C-60 2 -60 2 -57 0 C-54.58984375 -0.265625 -54.58984375 -0.265625 -51.9375 -0.25 C-51.05964844 -0.25515625 -50.18179688 -0.2603125 -49.27734375 -0.265625 C-47 0 -47 0 -45 2 C-44.01 1.34 -43.02 0.68 -42 0 C-39.57421875 -0.16015625 -39.57421875 -0.16015625 -36.6875 -0.0625 C-32.0432504 0.02173669 -27.50574393 -0.13055267 -22.875 -0.5 C-15.05831012 -1.10393851 -7.73642231 -1.38858862 0 0 Z " fill="#E3E5F8" transform="translate(76,33)"/>
<path d="M0 0 C0.87785156 -0.00515625 1.75570313 -0.0103125 2.66015625 -0.015625 C4.9375 0.25 4.9375 0.25 6.9375 2.25 C7.9275 1.59 8.9175 0.93 9.9375 0.25 C12.63671875 0.0546875 12.63671875 0.0546875 15.625 0.125 C17.11580078 0.15207031 17.11580078 0.15207031 18.63671875 0.1796875 C19.39597656 0.20289063 20.15523437 0.22609375 20.9375 0.25 C20.9375 1.57 20.9375 2.89 20.9375 4.25 C21.9275 4.25 22.9175 4.25 23.9375 4.25 C23.65140693 5.64698636 23.35833095 7.0425433 23.0625 8.4375 C22.90007813 9.21480469 22.73765625 9.99210937 22.5703125 10.79296875 C21.9375 13.25 21.9375 13.25 19.9375 18.25 C23.5675 18.25 27.1975 18.25 30.9375 18.25 C30.9375 18.58 30.9375 18.91 30.9375 19.25 C16.7475 19.25 2.5575 19.25 -12.0625 19.25 C-12.0625 11.30243446 -12.0625 11.30243446 -10.25 6.9375 C-9.91355469 6.09574219 -9.57710937 5.25398438 -9.23046875 4.38671875 C-6.9942815 0.29576749 -4.3038505 -0.02535405 0 0 Z " fill="#F4EAFA" transform="translate(24.0625,32.75)"/>
<path d="M0 0 C2.00720923 0.28674418 4.0085944 0.61866701 6 1 C6 1.99 6 2.98 6 4 C16.89 4.495 16.89 4.495 28 5 C27.00516798 3.78356708 27.00516798 3.78356708 25.05053711 3.88647461 C23.8015564 3.89432983 23.8015564 3.89432983 22.52734375 3.90234375 C21.17866211 3.90717773 21.17866211 3.90717773 19.80273438 3.91210938 C18.85720703 3.92048828 17.91167969 3.92886719 16.9375 3.9375 C15.98810547 3.94201172 15.03871094 3.94652344 14.06054688 3.95117188 C11.70696935 3.9629989 9.35351523 3.97947975 7 4 C7 3.01 7 2.02 7 1 C10.77041256 0.80329446 14.54133763 0.61921574 18.3125 0.4375 C19.9202832 0.35338867 19.9202832 0.35338867 21.56054688 0.26757812 C22.58857422 0.21923828 23.61660156 0.17089844 24.67578125 0.12109375 C25.62364502 0.0739624 26.57150879 0.02683105 27.5480957 -0.02172852 C30 0 30 0 33 1 C34.84610532 1.08239169 36.69505164 1.10743359 38.54296875 1.09765625 C40.15268555 1.09282227 40.15268555 1.09282227 41.79492188 1.08789062 C42.91447266 1.07951172 44.03402344 1.07113281 45.1875 1.0625 C46.31865234 1.05798828 47.44980469 1.05347656 48.61523438 1.04882812 C51.41020927 1.03703498 54.2050782 1.0205765 57 1 C56.67 1.99 56.34 2.98 56 4 C52.7 4 49.4 4 46 4 C50.29 4.33 54.58 4.66 59 5 C59 5.66 59 6.32 59 7 C58.01 7.33 57.02 7.66 56 8 C54.78130071 10.50447516 54.78130071 10.50447516 54 13 C52.96875 12.814375 51.9375 12.62875 50.875 12.4375 C47.19815877 12.02237276 44.5991957 12.37405292 41 13 C38.125 12.5625 38.125 12.5625 36 12 C36 11.01 36 10.02 36 9 C39.63 9 43.26 9 47 9 C47 8.34 47 7.68 47 7 C42.05 7 37.1 7 32 7 C32 7.66 32 8.32 32 9 C31.34 9 30.68 9 30 9 C30 9.66 30 10.32 30 11 C31.65 10.34 33.3 9.68 35 9 C35 9.99 35 10.98 35 12 C33.02 12 31.04 12 29 12 C29 10.68 29 9.36 29 8 C28.01 7.67 27.02 7.34 26 7 C26.495 8.98 26.495 8.98 27 11 C26.01 11 25.02 11 24 11 C24 9.68 24 8.36 24 7 C23.01 7 22.02 7 21 7 C21 8.65 21 10.3 21 12 C20.67 12 20.34 12 20 12 C20 10.35 20 8.7 20 7 C16.04 7 12.08 7 8 7 C8 8.32 8 9.64 8 11 C8.66 11 9.32 11 10 11 C10 10.34 10 9.68 10 9 C12.97 9 15.94 9 19 9 C19 9.99 19 10.98 19 12 C15.04 12 11.08 12 7 12 C7 10.35 7 8.7 7 7 C6.34 7 5.68 7 5 7 C5 8.65 5 10.3 5 12 C0.05 12 -4.9 12 -10 12 C-10.33 10.68 -10.66 9.36 -11 8 C-11.99 7.67 -12.98 7.34 -14 7 C-13.67 8.65 -13.34 10.3 -13 12 C-14.32 12 -15.64 12 -17 12 C-16.67 10.35 -16.34 8.7 -16 7 C-17.65 7 -19.3 7 -21 7 C-21 6.34 -21 5.68 -21 5 C-15.555 4.505 -15.555 4.505 -10 4 C-12.97 4 -15.94 4 -19 4 C-19 3.01 -19 2.02 -19 1 C-17.06833984 1.01740234 -17.06833984 1.01740234 -15.09765625 1.03515625 C-13.41927228 1.0445327 -11.74088674 1.05363305 -10.0625 1.0625 C-9.21236328 1.07087891 -8.36222656 1.07925781 -7.48632812 1.08789062 C-6.67744141 1.09111328 -5.86855469 1.09433594 -5.03515625 1.09765625 C-4.2862915 1.10289307 -3.53742676 1.10812988 -2.76586914 1.11352539 C-0.97332261 1.19341752 -0.97332261 1.19341752 0 0 Z " fill="#BE9798" transform="translate(31,54)"/>
<path d="M0 0 C3.3 0 6.6 0 10 0 C9.34 5.94 8.68 11.88 8 18 C5.69 18 3.38 18 1 18 C1 17.01 1 16.02 1 15 C0.34 15 -0.32 15 -1 15 C-1.33 15.99 -1.66 16.98 -2 18 C-3.98 18 -5.96 18 -8 18 C-6.65150163 13.64029169 -4.95092154 9.68658562 -2.875 5.625 C-2.33617188 4.56539062 -1.79734375 3.50578125 -1.2421875 2.4140625 C-0.83226563 1.61742187 -0.42234375 0.82078125 0 0 Z " fill="#0B11A4" transform="translate(78,33)"/>
<path d="M0 0 C26.4 0 52.8 0 80 0 C80 0.66 80 1.32 80 2 C75.85989011 2.14574303 71.71967653 2.28795587 67.5793457 2.42724609 C66.17827279 2.47483754 64.77722928 2.52330459 63.3762207 2.57275391 C53.57898118 2.91775192 43.80370957 3.06374669 34 3 C33.67 3.66 33.34 4.32 33 5 C33 4.34 33 3.68 33 3 C32.01 3.66 31.02 4.32 30 5 C35.94 5.33 41.88 5.66 48 6 C48.33 5.34 48.66 4.68 49 4 C49 4.99 49 5.98 49 7 C40.42 7 31.84 7 23 7 C24.32 6.67 25.64 6.34 27 6 C27 5.01 27 4.02 27 3 C18.09 2.67 9.18 2.34 0 2 C0 1.34 0 0.68 0 0 Z " fill="#EAAFB3" transform="translate(10,52)"/>
<path d="M0 0 C0.886875 -0.01417969 1.77375 -0.02835938 2.6875 -0.04296875 C5 0.1875 5 0.1875 7 2.1875 C6.625 5.3125 6.625 5.3125 6 8.1875 C3.69 8.1875 1.38 8.1875 -1 8.1875 C-0.67 6.5375 -0.34 4.8875 0 3.1875 C-0.66 3.1875 -1.32 3.1875 -2 3.1875 C-2.99 6.8175 -3.98 10.4475 -5 14.1875 C-4.34 14.5175 -3.68 14.8475 -3 15.1875 C-2.67 13.8675 -2.34 12.5475 -2 11.1875 C-0.02 11.1875 1.96 11.1875 4 11.1875 C2.56521739 15.73097826 2.56521739 15.73097826 0.375 17.5 C-3.21797275 18.54007106 -6.25673798 18.42900078 -10 18.1875 C-10.66 17.5275 -11.32 16.8675 -12 16.1875 C-11.77595263 10.58631586 -10.02141828 5.86214715 -7 1.1875 C-4.52224905 -0.05137548 -2.76346293 0.02008331 0 0 Z " fill="#171C98" transform="translate(24,32.8125)"/>
<path d="M0 0 C1.97909398 -0.02686553 3.95828971 -0.04633375 5.9375 -0.0625 C7.03964844 -0.07410156 8.14179687 -0.08570313 9.27734375 -0.09765625 C12 0 12 0 13 1 C12.8633525 3.8695975 12.73433611 6.26189403 12 9 C9.23756941 11.36779765 6.53543792 11.19641322 3 11 C2.34 13.31 1.68 15.62 1 18 C-0.98 18 -2.96 18 -5 18 C-3.75971762 11.82777121 -2.10396411 5.93317878 0 0 Z " fill="#1B20A6" transform="translate(61,33)"/>
<path d="M0 0 C3.63 0 7.26 0 11 0 C10.67 1.32 10.34 2.64 10 4 C8.35 4 6.7 4 5 4 C5 4.99 5 5.98 5 7 C5.99 7 6.98 7 8 7 C8 7.99 8 8.98 8 10 C6.35 10 4.7 10 3 10 C3 10.99 3 11.98 3 13 C4.32 13.33 5.64 13.66 7 14 C6.67 15.32 6.34 16.64 6 18 C2.37 18 -1.26 18 -5 18 C-4.38388165 13.68068613 -3.35761422 9.74791225 -1.9375 5.625 C-1.57527344 4.56539062 -1.21304688 3.50578125 -0.83984375 2.4140625 C-0.56269531 1.61742187 -0.28554688 0.82078125 0 0 Z " fill="#11179B" transform="translate(34,33)"/>
<path d="M0 0 C4.62 0 9.24 0 14 0 C13.67 0.99 13.34 1.98 13 3 C11.68 3 10.36 3 9 3 C8.52029877 4.74985354 8.04126076 6.49988891 7.5625 8.25 C7.29566406 9.22453125 7.02882813 10.1990625 6.75390625 11.203125 C6.14455416 13.46372653 5.55761745 15.72622009 5 18 C2.69 18 0.38 18 -2 18 C-1.52188823 16.22888156 -1.0424722 14.45811517 -0.5625 12.6875 C-0.29566406 11.70136719 -0.02882812 10.71523438 0.24609375 9.69921875 C0.78079425 7.78482474 1.37144538 5.88566385 2 4 C1.01 4 0.02 4 -1 4 C-0.67 2.68 -0.34 1.36 0 0 Z " fill="#090FAB" transform="translate(46,33)"/>
<path d="M0 0 C3.3 0 6.6 0 10 0 C9.67 3.63 9.34 7.26 9 11 C8.67 11 8.34 11 8 11 C8 7.7 8 4.4 8 1 C6.71387324 2.05978933 6.71387324 2.05978933 6.90234375 4.50390625 C6.91394531 5.51324219 6.92554687 6.52257813 6.9375 7.5625 C6.94652344 8.57441406 6.95554687 9.58632813 6.96484375 10.62890625 C6.97644531 11.41136719 6.98804687 12.19382812 7 13 C4.69 13 2.38 13 0 13 C0.33 10.69 0.66 8.38 1 6 C0.01 6.99 -0.98 7.98 -2 9 C-2.66 8.67 -3.32 8.34 -4 8 C-2.68 5.36 -1.36 2.72 0 0 Z " fill="#161B9C" transform="translate(78,33)"/>
<path d="M0 0 C0.66 0.33 1.32 0.66 2 1 C0.35 6.28 -1.3 11.56 -3 17 C-3.99 17 -4.98 17 -6 17 C-6 13.89448334 -5.4606285 12.64738916 -4 10 C-5.98 10.33 -7.96 10.66 -10 11 C-10.33 11.99 -10.66 12.98 -11 14 C-11.99 13.67 -12.98 13.34 -14 13 C-12.68 9.37 -11.36 5.74 -10 2 C-9.34 2 -8.68 2 -8 2 C-8.33 3.65 -8.66 5.3 -9 7 C-6.69 7 -4.38 7 -2 7 C-1.855625 6.21625 -1.71125 5.4325 -1.5625 4.625 C-1 2 -1 2 0 0 Z " fill="#E3E8FC" transform="translate(32,34)"/>
<path d="M0 0 C1.65 0 3.3 0 5 0 C4.505 0.61875 4.01 1.2375 3.5 1.875 C1.80777227 3.83880904 1.80777227 3.83880904 2 6 C2.66 6 3.32 6 4 6 C4 6.99 4 7.98 4 9 C5.65 9 7.3 9 9 9 C8.67 10.32 8.34 11.64 8 13 C4.37 13 0.74 13 -3 13 C-2.343621 8.51474352 -1.29925791 4.33085971 0 0 Z " fill="#1F22A7" transform="translate(32,38)"/>
<path d="M0 0 C8.91 0 17.82 0 27 0 C26.67 0.99 26.34 1.98 26 3 C17.42 3 8.84 3 0 3 C0 2.01 0 1.02 0 0 Z " fill="#7D7977" transform="translate(61,55)"/>
<path d="M0 0 C0.886875 -0.01417969 1.77375 -0.02835938 2.6875 -0.04296875 C5 0.1875 5 0.1875 7 2.1875 C6.625 5.3125 6.625 5.3125 6 8.1875 C3.69 8.1875 1.38 8.1875 -1 8.1875 C-0.67 6.5375 -0.34 4.8875 0 3.1875 C-0.66 3.1875 -1.32 3.1875 -2 3.1875 C-2.33 3.8475 -2.66 4.5075 -3 5.1875 C-3 4.1975 -3 3.2075 -3 2.1875 C-4.32 1.8575 -5.64 1.5275 -7 1.1875 C-4.52224905 -0.05137548 -2.76346293 0.02008331 0 0 Z " fill="#38399F" transform="translate(24,32.8125)"/>
<path d="M0 0 C2.97 0 5.94 0 9 0 C8.34 1.98 7.68 3.96 7 6 C5.96875 5.814375 4.9375 5.62875 3.875 5.4375 C0.19815877 5.02237276 -2.4008043 5.37405292 -6 6 C-8.875 5.5625 -8.875 5.5625 -11 5 C-11 4.01 -11 3.02 -11 2 C-7.37 2 -3.74 2 0 2 C0 1.34 0 0.68 0 0 Z " fill="#ACA7A9" transform="translate(78,61)"/>
<path d="M0 0 C0.33 0.66 0.66 1.32 1 2 C1.99 2 2.98 2 4 2 C3.34 4.97 2.68 7.94 2 11 C-0.31 10.67 -2.62 10.34 -5 10 C-5.33 10.66 -5.66 11.32 -6 12 C-6.66 11.67 -7.32 11.34 -8 11 C-7.67 10.01 -7.34 9.02 -7 8 C-5.35 8 -3.7 8 -2 8 C-2 7.01 -2 6.02 -2 5 C-2.99 5 -3.98 5 -5 5 C-5 4.01 -5 3.02 -5 2 C-3.35 2 -1.7 2 0 2 C0 1.34 0 0.68 0 0 Z " fill="#E6E9FC" transform="translate(44,35)"/>
<path d="M0 0 C6.6 0 13.2 0 20 0 C20 0.99 20 1.98 20 3 C13.4 3 6.8 3 0 3 C0 2.01 0 1.02 0 0 Z " fill="#7C7977" transform="translate(38,55)"/>
<path d="M0 0 C3.96 0 7.92 0 12 0 C12.33 1.65 12.66 3.3 13 5 C12.34 5 11.68 5 11 5 C11 5.99 11 6.98 11 8 C10.01 7.67 9.02 7.34 8 7 C8 5.35 8 3.7 8 2 C5.36 2.99 2.72 3.98 0 5 C0 3.35 0 1.7 0 0 Z " fill="#131898" transform="translate(61,33)"/>
<path d="M0 0 C4.62 0 9.24 0 14 0 C13.67 0.99 13.34 1.98 13 3 C11.68 3 10.36 3 9 3 C8.67 4.65 8.34 6.3 8 8 C7.67 8 7.34 8 7 8 C7 6.02 7 4.04 7 2 C5.68 2.33 4.36 2.66 3 3 C3 4.65 3 6.3 3 8 C2.01 8.495 2.01 8.495 1 9 C1.33 7.35 1.66 5.7 2 4 C1.01 4 0.02 4 -1 4 C-0.67 2.68 -0.34 1.36 0 0 Z " fill="#1F2197" transform="translate(46,33)"/>
<path d="M0 0 C5.94 0 11.88 0 18 0 C18 0.99 18 1.98 18 3 C12.06 3 6.12 3 0 3 C0 2.01 0 1.02 0 0 Z " fill="#726D6C" transform="translate(12,55)"/>
<path d="M0 0 C3.96 0 7.92 0 12 0 C12 1.32 12 2.64 12 4 C7.05 4 2.1 4 -3 4 C-2.01 3.67 -1.02 3.34 0 3 C0 2.01 0 1.02 0 0 Z " fill="#555453" transform="translate(24,62)"/>
<path d="M0 0 C3.63 0 7.26 0 11 0 C10.67 1.32 10.34 2.64 10 4 C6.37 4 2.74 4 -1 4 C-0.67 2.68 -0.34 1.36 0 0 Z " fill="#21269A" transform="translate(34,33)"/>
<path d="M0 0 C1.32 0 2.64 0 4 0 C4 0.99 4 1.98 4 3 C3.34 3 2.68 3 2 3 C2 4.65 2 6.3 2 8 C1.34 8 0.68 8 0 8 C0 9.98 0 11.96 0 14 C-0.99 13.67 -1.98 13.34 -3 13 C-2.45144652 8.428721 -1.58255197 4.32564205 0 0 Z " fill="#0A0FAA" transform="translate(17,35)"/>
<path d="M0 0 C0.66 0 1.32 0 2 0 C2 0.99 2 1.98 2 3 C7.94 2.505 7.94 2.505 14 2 C13.67 3.32 13.34 4.64 13 6 C13 5.34 13 4.68 13 4 C4.42 4 -4.16 4 -13 4 C-9.79619983 1.86413322 -8.98060033 1.76867825 -5.3125 1.875 C-4.10013672 1.90207031 -4.10013672 1.90207031 -2.86328125 1.9296875 C-1.94095703 1.96449219 -1.94095703 1.96449219 -1 2 C-0.67 1.34 -0.34 0.68 0 0 Z " fill="#FBF2F9" transform="translate(77,48)"/>
<path d="M0 0 C4.95 0 9.9 0 15 0 C15 0.66 15 1.32 15 2 C12.00468461 2.99843846 10.82744268 3.00732761 7.8125 2.5625 C6.554375 2.376875 5.29625 2.19125 4 2 C3.67 2.99 3.34 3.98 3 5 C3 4.01 3 3.02 3 2 C1.35 2.66 -0.3 3.32 -2 4 C-2 3.34 -2 2.68 -2 2 C-1.34 2 -0.68 2 0 2 C0 1.34 0 0.68 0 0 Z " fill="#F2EDE9" transform="translate(63,61)"/>
<path d="M0 0 C1.125 3.75 1.125 3.75 0 6 C0.66 6 1.32 6 2 6 C2 5.34 2 4.68 2 4 C3.65 4 5.3 4 7 4 C7 4.99 7 5.98 7 7 C8.98 7 10.96 7 13 7 C13 7.33 13 7.66 13 8 C10.69 8 8.38 8 6 8 C6 7.01 6 6.02 6 5 C5.34 5 4.68 5 4 5 C3.67 5.99 3.34 6.98 3 8 C1.02 8 -0.96 8 -3 8 C-1.125 2.25 -1.125 2.25 0 0 Z " fill="#33359E" transform="translate(73,43)"/>
<path d="M0 0 C1.31223496 3.93670488 0.24296256 6.12488144 -1 10 C-3.31 10 -5.62 10 -8 10 C-7.34 7.36 -6.68 4.72 -6 2 C-5.01 2 -4.02 2 -3 2 C-3 2.66 -3 3.32 -3 4 C-3.66 4 -4.32 4 -5 4 C-5 5.32 -5 6.64 -5 8 C-4.01 8 -3.02 8 -2 8 C-1.855625 6.865625 -1.71125 5.73125 -1.5625 4.5625 C-1 1 -1 1 0 0 Z " fill="#262898" transform="translate(52,41)"/>
<path d="M0 0 C3.96 0 7.92 0 12 0 C12.33 0.99 12.66 1.98 13 3 C12.34 3 11.68 3 11 3 C10.67 3.66 10.34 4.32 10 5 C10 4.01 10 3.02 10 2 C9.01 1.67 8.02 1.34 7 1 C7.33 2.65 7.66 4.3 8 6 C6.68 6 5.36 6 4 6 C4.33 4.35 4.66 2.7 5 1 C3.35 1 1.7 1 0 1 C0 0.67 0 0.34 0 0 Z " fill="#937D7D" transform="translate(10,60)"/>
<path d="M0 0 C3.96 0 7.92 0 12 0 C12 1.65 12 3.3 12 5 C11.67 4.01 11.34 3.02 11 2 C9.88625 2.2784375 9.88625 2.2784375 8.75 2.5625 C6.05009037 2.99203108 4.55368923 2.85122974 2 2 C2 2.66 2 3.32 2 4 C1.34 4 0.68 4 0 4 C0 2.68 0 1.36 0 0 Z " fill="#F1EAEA" transform="translate(39,61)"/>
<path d="M0 0 C0.99 0 1.98 0 3 0 C3 0.66 3 1.32 3 2 C2.34 2 1.68 2 1 2 C1.33 3.65 1.66 5.3 2 7 C2 6.34 2 5.68 2 5 C2.99 5 3.98 5 5 5 C4.67 6.32 4.34 7.64 4 9 C2.02 9 0.04 9 -2 9 C-1.34 6.03 -0.68 3.06 0 0 Z " fill="#272B9C" transform="translate(58,42)"/>
<path d="M0 0 C2.97 0.495 2.97 0.495 6 1 C5.67 2.98 5.34 4.96 5 7 C3.68 7 2.36 7 1 7 C1.33 5.68 1.66 4.36 2 3 C1.01 3 0.02 3 -1 3 C-0.67 2.01 -0.34 1.02 0 0 Z " fill="#F5F7FE" transform="translate(39,44)"/>
<path d="M0 0 C3.96 0 7.92 0 12 0 C11.67 0.99 11.34 1.98 11 3 C6.98195309 3.84098656 3.98196457 4.05404945 0 3 C0 2.01 0 1.02 0 0 Z " fill="#484A4B" transform="translate(67,63)"/>
<path d="M0 0 C0.33 0.99 0.66 1.98 1 3 C1.66 3 2.32 3 3 3 C3 2.34 3 1.68 3 1 C5.97 1 8.94 1 12 1 C12 1.99 12 2.98 12 4 C8.04 4 4.08 4 0 4 C0 2.68 0 1.36 0 0 Z " fill="#535354" transform="translate(38,62)"/>
<path d="M0 0 C1.4540625 0.0309375 1.4540625 0.0309375 2.9375 0.0625 C2.1875 2.5 2.1875 2.5 0.9375 5.0625 C-1.1875 5.875 -1.1875 5.875 -3.0625 6.0625 C-3.44468767 4.40635343 -3.77645102 2.73792976 -4.0625 1.0625 C-3.0625 0.0625 -3.0625 0.0625 0 0 Z " fill="#17199C" transform="translate(25.0625,43.9375)"/>
<path d="M0 0 C0.33 0 0.66 0 1 0 C1.16501879 2.8878289 1.10488647 4.75937811 -0.0625 7.4375 C-1.23610042 10.64534114 -0.76287657 12.71963074 0 16 C-1.32 15.34 -2.64 14.68 -4 14 C-3.46148032 8.72250715 -2.22656164 4.74354436 0 0 Z " fill="#2A2D9E" transform="translate(16,35)"/>
<path d="M0 0 C3.96 0 7.92 0 12 0 C11.67 0.99 11.34 1.98 11 3 C9.54176788 3.0270043 8.08339325 3.04639787 6.625 3.0625 C5.81289062 3.07410156 5.00078125 3.08570313 4.1640625 3.09765625 C2 3 2 3 0 2 C0 1.34 0 0.68 0 0 Z " fill="#6A6767" transform="translate(76,55)"/>
<path d="M0 0 C2.31 0 4.62 0 7 0 C7.33 1.98 7.66 3.96 8 6 C6.68 6 5.36 6 4 6 C4 4.68 4 3.36 4 2 C2.68 1.67 1.36 1.34 0 1 C0 0.67 0 0.34 0 0 Z " fill="#0D109F" transform="translate(21,33)"/>
<path d="M0 0 C0.66 0 1.32 0 2 0 C1.67 1.65 1.34 3.3 1 5 C2.98 5 4.96 5 7 5 C6.67 5.66 6.34 6.32 6 7 C3.69 7 1.38 7 -1 7 C-0.67 4.69 -0.34 2.38 0 0 Z " fill="#ECF3FE" transform="translate(22,36)"/>
<path d="M0 0 C0 0.99 0 1.98 0 3 C-3.63 3 -7.26 3 -11 3 C-11 2.34 -11 1.68 -11 1 C-3.375 0 -3.375 0 0 0 Z " fill="#252993" transform="translate(40,48)"/>
<path d="M0 0 C1.125 3.75 1.125 3.75 0 6 C0.66 6 1.32 6 2 6 C2.33 5.34 2.66 4.68 3 4 C3 4.99 3 5.98 3 7 C1.02 7.33 -0.96 7.66 -3 8 C-2.37240135 5.07120629 -1.41377341 2.63904371 0 0 Z " fill="#5D5DCC" transform="translate(81,38)"/>
<path d="M0 0 C0.66 0 1.32 0 2 0 C2.185625 0.9590625 2.185625 0.9590625 2.375 1.9375 C2.684375 2.9584375 2.684375 2.9584375 3 4 C3.66 4.33 4.32 4.66 5 5 C5 4.01 5 3.02 5 2 C5.66 2.33 6.32 2.66 7 3 C6.67 3.99 6.34 4.98 6 6 C3.69 5.67 1.38 5.34 -1 5 C-0.67 3.35 -0.34 1.7 0 0 Z " fill="#6568C6" transform="translate(67,36)"/>
<path d="M0 0 C3.3 0 6.6 0 10 0 C9.01 0.495 9.01 0.495 8 1 C8 1.66 8 2.32 8 3 C5.36 3 2.72 3 0 3 C0 2.01 0 1.02 0 0 Z " fill="#6C6669" transform="translate(38,55)"/>
<path d="M0 0 C-0.66 1.65 -1.32 3.3 -2 5 C-2.33 4.01 -2.66 3.02 -3 2 C-3.99 2.99 -4.98 3.98 -6 5 C-6.66 4.67 -7.32 4.34 -8 4 C-7.1875 2.0625 -7.1875 2.0625 -6 0 C-3 -1 -3 -1 0 0 Z " fill="#151B9F" transform="translate(82,37)"/>
<path d="M0 0 C0.33 0.66 0.66 1.32 1 2 C3.31 2 5.62 2 8 2 C8 2.33 8 2.66 8 3 C6.02 3.33 4.04 3.66 2 4 C1.67 4.99 1.34 5.98 1 7 C0.01 6.67 -0.98 6.34 -2 6 C-1.34 4.02 -0.68 2.04 0 0 Z " fill="#C5C7F1" transform="translate(20,41)"/>
<path d="M0 0 C0.66 1.32 1.32 2.64 2 4 C0.68 4.33 -0.64 4.66 -2 5 C-2 5.66 -2 6.32 -2 7 C-2.66 6.67 -3.32 6.34 -4 6 C-3.6875 4.125 -3.6875 4.125 -3 2 C-2.01 1.34 -1.02 0.68 0 0 Z " fill="#0B10A7" transform="translate(62,42)"/>
<path d="M0 0 C1.51400391 0.01740234 1.51400391 0.01740234 3.05859375 0.03515625 C4.07050781 0.04417969 5.08242187 0.05320312 6.125 0.0625 C7.29869141 0.07990234 7.29869141 0.07990234 8.49609375 0.09765625 C8.49609375 0.42765625 8.49609375 0.75765625 8.49609375 1.09765625 C5.19609375 1.09765625 1.89609375 1.09765625 -1.50390625 1.09765625 C-1.83390625 2.41765625 -2.16390625 3.73765625 -2.50390625 5.09765625 C-3.16390625 5.09765625 -3.82390625 5.09765625 -4.50390625 5.09765625 C-3.38261259 0.13192717 -3.38261259 0.13192717 0 0 Z " fill="#E9EBFE" transform="translate(79.50390625,31.90234375)"/>
</svg>
