<?xml version="1.0" encoding="UTF-8" standalone="no"?>
<svg xmlns="http://www.w3.org/2000/svg" width="1024" height="1024" viewBox="0 0 1024 1024">
  <defs>
    <linearGradient id="g1" x1="0%" y1="0%" x2="100%" y2="0%">
      <stop offset="0%" stop-color="#19d6c2"/>
      <stop offset="100%" stop-color="#15306d"/>
    </linearGradient>
    <linearGradient id="g2" x1="0%" y1="0%" x2="100%" y2="0%">
      <stop offset="0%" stop-color="#35c8bf"/>
      <stop offset="100%" stop-color="#1f3c85"/>
    </linearGradient>
    <linearGradient id="g3" x1="0%" y1="0%" x2="100%" y2="0%">
      <stop offset="0%" stop-color="#57bfd0"/>
      <stop offset="100%" stop-color="#2b4ca3"/>
    </linearGradient>
    <linearGradient id="g4" x1="0%" y1="0%" x2="100%" y2="0%">
      <stop offset="0%" stop-color="#7ad0e3"/>
      <stop offset="100%" stop-color="#3157b8"/>
    </linearGradient>
  </defs>

  <!-- Multi-stroke N -->
  <g transform="translate(140,140) scale(0.9)">
    <path d="M60,420
             C60,300 120,250 180,250
             C260,250 300,420 380,420
             C460,420 500,250 580,250
             C640,250 700,300 700,420" fill="none" stroke="url(#g1)" stroke-width="32" stroke-linecap="round"/>
    <path d="M40,360
             C40,240 120,200 200,200
             C280,200 320,360 400,360
             C480,360 520,200 600,200
             C680,200 760,240 760,360" fill="none" stroke="url(#g2)" stroke-width="28" stroke-linecap="round"/>
    <path d="M30,300
             C30,190 130,160 220,160
             C300,160 340,300 420,300
             C500,300 540,160 620,160
             C710,160 810,190 810,300" fill="none" stroke="url(#g3)" stroke-width="24" stroke-linecap="round"/>
    <path d="M20,240
             C20,150 140,120 240,120
             C320,120 360,240 440,240
             C520,240 560,120 640,120
             C740,120 860,150 860,240" fill="none" stroke="url(#g4)" stroke-width="20" stroke-linecap="round"/>
  </g>

  <!-- Wordmark -->
  <g transform="translate(170,760)">
    <text x="0" y="0" font-family="Montserrat, Poppins, Arial, sans-serif"
          font-weight="800" font-size="140" letter-spacing="8" fill="#0f2560">
      NIRVEXA
    </text>
  </g>
</svg>
